<?xml version="1.0" standalone="no"?>
<!DOCTYPE svg PUBLIC "-//W3C//DTD SVG 1.1//EN" "http://www.w3.org/Graphics/SVG/1.1/DTD/svg11.dtd" >
<svg xmlns="http://www.w3.org/2000/svg">
<metadata></metadata>
<defs>
<font id="obelixproitalic" horiz-adv-x="805" >
<font-face units-per-em="2048" ascent="1638" descent="-410" />
<missing-glyph horiz-adv-x="625" />
<glyph horiz-adv-x="2048" />
<glyph horiz-adv-x="2048" />
<glyph unicode="&#xd;" horiz-adv-x="2048" />
<glyph unicode=" "  horiz-adv-x="625" />
<glyph unicode="&#x09;" horiz-adv-x="625" />
<glyph unicode="&#xa0;" horiz-adv-x="625" />
<glyph unicode="!" horiz-adv-x="666" d="M77 191q6 58 38 102.5t72 75t94 44t104 8.5q53 -14 98.5 -50t73 -81.5t41.5 -102.5t3 -112q-8 -55 -36 -106.5t-69.5 -82t-93 -43t-106.5 1.5q-55 11 -98 41.5t-70.5 81.5t-44.5 105t-6 118zM80 2037l557 -39l-117 -1414q-362 28 -359 28q3 -3 -36 686q-19 321 -45 739z " />
<glyph unicode="&#x22;" horiz-adv-x="827" d="M-22 2015l340 124q-30 -462 25 -799l-301 -144zM410 2042l351 70q-64 -459 -36 -795l-310 -99z" />
<glyph unicode="#" horiz-adv-x="1915" d="M58 739l352 19l-9 202q-119 -3 -252 -22l-91 379l324 25l-19 421l440 77q-11 -238 -14 -481l254 16l-16 388l437 77q-11 -224 -14 -445l349 22l17 -374q-58 -3 -181.5 -4t-178.5 -9q-8 -108 3 -214l337 23l36 -371q-116 -6 -360 -14q11 -86 17 -161l17 -163l-402 -108 l-16 413q-91 -3 -269 -14q8 -147 25 -291l-404 -108l-17 363q-64 -3 -116 -9l-133 -11zM786 994q3 -72 3 -211l279 17l-5 207q-97 -2 -277 -13z" />
<glyph unicode="$" horiz-adv-x="1408" d="M6 1417q-3 44 16 111q22 116 130 249q58 72 188 158q122 58 136 58q22 0 50 33l-3 47l-5 116q-4 42 24 42h178l16 -14v-44l6 -106l11 -11h88q230 -19 258 -38l88 -25q89 -33 92 -58v-6l-17 -53l-17 -83l-58 -213l-44 -163h-3q-25 0 -69 30l-69 25q-58 28 -205 36l-47 6 v-22l14 -360l11 -14h33l100 -25q91 -22 185 -72q83 -30 186 -141q58 -91 58 -108q11 0 19 -61q11 0 28 -74l3 -125q-17 -136 -78 -249q0 -14 -83 -119q-50 -61 -105 -94q-72 -61 -152 -94q0 -11 -56 -31q0 -6 -58 -16q-6 -11 -61 -20l6 -124l-17 -22h-155q-22 0 -25 19 l-2 77l-12 12h-22q-185 19 -268 38q-25 0 -78 28q-133 42 -171 86v8l11 169q11 0 14 138q11 17 25 164h8q14 0 113 -97l59 -20q33 -28 63 -27q0 -19 177 -36q64 0 61 22l-3 14l-5 180l-8 218q-22 22 -117 36q0 11 -49 31l-50 25q-6 17 -36 16q0 11 -45 25l-85 80 q-64 55 -94 114q-47 72 -78 213zM335 1378q3 -64 91 -130q14 0 56 -33q17 0 36 -11h11l-9 285l6 36q-44 -22 -91 -25q-3 -11 -53 -33q-47 -50 -47 -89zM775 631l5 -365h3q83 19 125 47q17 0 36 25q33 0 77 88l-3 78q-58 77 -130 99q0 19 -60 28l-28 14h-17q-11 0 -8 -14z " />
<glyph unicode="%" horiz-adv-x="1571" d="M-28 1611q14 108 53 180q17 44 124 166q83 77 202 99h133q130 -42 150 -74q66 -19 122 -164l11 -83q8 -213 -122 -376q-100 -108 -180 -122q0 -22 -147 -33h-8q-130 0 -199 66q-77 50 -114 141l-19 75zM39 22v3q72 75 174 268q111 188 321 604l141 279q202 412 410 866 l19 14l39 -38q0 -6 25 -6q36 -39 163 -105v-11q0 -8 -47 -105l-127 -283q-11 0 -20 -41q-14 -6 -22 -50l-152 -318q-196 -410 -448 -864q-152 -257 -271 -415q-36 11 -205 202zM266 1594q3 -72 58 -100l14 -5h38q44 0 94 86l9 80v22q-3 64 -67 86h-47q-77 -36 -74 -78 q-28 0 -25 -91zM772 274q14 161 28 177q22 144 138 302q127 125 208 124l39 3q183 0 279 -191q19 -17 50 -130l8 -180q-17 -138 -52 -249q-75 -208 -233 -279q-100 -36 -124 -36h-25q-127 0 -222 127q-36 61 -69 141q0 19 -19 83v8h2l-5 61zM1043 307q11 -105 36 -105 q0 -22 31 -22h30q39 0 86 94l19 105v6q-6 97 -83 110h-27q-50 -28 -72 -77q-14 -34 -20 -111z" />
<glyph unicode="&#x26;" horiz-adv-x="1643" d="M86 446q-3 83 16 135q6 53 42 125q25 44 72 105q83 105 152 152v8l-39 89q-86 166 -94 255q-3 0 -5 33h-3v19v36q11 133 25 133q-3 36 83 149q69 72 138 97q3 6 97 28h97l100 -22q166 -53 263 -188q61 -86 63 -139q3 0 14 -63q0 -39 -14 -161q-8 0 -16 -61q-6 0 -34 -52 q-97 -122 -130 -142q-28 -30 -41 -30q0 -14 -22 -19v-11l180 -164q50 -47 63 -47q61 100 67 144q25 39 36 108q11 0 16 58v3h8q50 -42 70 -44q0 -14 102 -58l91 -36l6 -20l-28 -113q-6 0 -11 -33q-8 -8 -19 -42l-78 -163q0 -11 64 -42q64 -47 155 -94q30 -14 53 -36v-3 q-30 -80 -92 -188q-55 -100 -102 -158l-11 -5l-114 64l-177 121l-130 -108l-75 -38l-36 -17l-55 -22l-86 -25l-138 -8q-138 8 -197 33q-100 36 -132 75q-69 30 -147 180q-17 55 -44 168zM443 534l3 -77q3 -33 47 -78q58 -39 102 -41h3q138 17 155 41q17 0 77 42v11 q-36 0 -268 265h-11q-77 -86 -97 -141q-11 0 -11 -22zM537 1378q6 -102 52 -160q25 -30 45 -42q69 0 138 122l14 36l-3 33q-17 17 -16 44q-50 58 -119 59l-50 -9h-11q-53 -42 -50 -83z" />
<glyph unicode="'" horiz-adv-x="755" d="M-111 1755l227 495l285 -127l-304 -485z" />
<glyph unicode="(" horiz-adv-x="750" d="M307 2319l199 -86q-268 -1229 103 -2593l-174 -119q-836 1434 -128 2798z" />
<glyph unicode=")" horiz-adv-x="761" d="M130 2233l191 86q825 -1364 108 -2798l-183 119q255 1364 -116 2593z" />
<glyph unicode="*" horiz-adv-x="1073" d="M6 1276l249 188q-97 72 -213 155l154 274l189 -152l19 263l260 5l-16 -133q-8 -72 -14 -132l235 177l100 -244q-125 -97 -263 -191l218 -177l-185 -241q-22 19 -150 125q-6 -113 -5 -230l-263 -50l22 291q-33 -28 -98 -77.5t-96 -72.5z" />
<glyph unicode="+" horiz-adv-x="1267" d="M75 919l360 44l-61 390l442 34q-30 -288 -27 -393l318 52l86 -423q-172 -19 -338 -39q8 -130 47 -335l-407 -69l-13 354q-122 -14 -283 -44z" />
<glyph unicode="," horiz-adv-x="567" d="M-42 -363l155 701l468 -25q-177 -374 -243 -676h-380z" />
<glyph unicode="-" d="M66 1101l648 9l11 -473q-351 22 -614 -17z" />
<glyph unicode="." horiz-adv-x="633" d="M50 191q6 58 37.5 102.5t71.5 75t94 44t104 8.5q53 -14 98.5 -50t73 -81.5t41.5 -102.5t3 -112q-8 -55 -36 -106.5t-71 -82t-92.5 -43t-110.5 1.5q-47 11 -91.5 41.5t-75 81.5t-44 105t-2.5 118z" />
<glyph unicode="/" horiz-adv-x="1660" d="M-19 -125l1215 2104l487 -130q-767 -1143 -1229 -2051z" />
<glyph unicode="0" horiz-adv-x="1516" d="M-33 938q22 404 216 739q240 404 622 404q327 0 540 -335q113 -172 163 -379q50 -196 34 -429q-22 -390 -222 -722q-241 -404 -620 -404q-332 0 -545 326q-105 163 -149 371q-50 196 -39 429zM418 844q-3 -105 17 -185q30 -122 107 -191q83 -83 211 -83q174 0 274 166 q77 133 88 318q3 210 -74 415q-89 205 -236 205q-169 0 -282 -255q-94 -205 -105 -390z" />
<glyph unicode="1" horiz-adv-x="1059" d="M17 1810l938 149q-58 -1104 55 -1959l-490 -127l-77 1458l-382 -55z" />
<glyph unicode="2" horiz-adv-x="1475" d="M66 -42q-64 282 11 485q89 241 537 490q252 136 272 265q6 75 -3 125q-14 58 -61 102.5t-108 44.5q-136 0 -100 -197l-539 -100q-6 628 351 789q100 42 213 42q230 0 446 -147q280 -185 340 -457q58 -249 -119 -484q-133 -177 -440 -321q-238 -105 -282 -210l786 47 l58 -523l-1320 -70q-28 64 -42 119z" />
<glyph unicode="3" horiz-adv-x="1439" d="M-53 1912l1213 64q8 -210 47 -631q-194 -3 -454 -246q595 -80 675 -418q64 -291 -243.5 -577.5t-647.5 -258.5q-401 30 -548 526l551 77q-6 -28 0 -63q11 -44 58 -45q22 0 55 6q119 36 175 122q19 30 11 63q-36 130 -327 130q-163 0 -429 -36l-8 474q246 172 459 326 q-252 -22 -501 -47z" />
<glyph unicode="4" horiz-adv-x="1400" d="M17 531l94 1362l559 80q-116 -609 -166 -1126l254 11l-38 836l500 83q-17 -567 -13 -891l141 8l66 -534h-97q-53 -3 -83 -3q8 -188 31 -371l-460 -113l-25 467q-288 -19 -586 -47z" />
<glyph unicode="5" horiz-adv-x="1386" d="M8 1912l1113 67l64 -518q-329 -19 -687 -36q0 -44 -3 -127q720 -14 831 -399q64 -172 -22 -379q-55 -172 -189 -318q-277 -324 -586 -324q-202 0 -349 197q-83 105 -130 296q-25 116 -39 252l551 -42q-8 -61 5 -97q11 -55 56 -55q17 0 36 3q108 36 160 141q25 61 14 105 q-17 58 -69 105q-69 75 -310 75q-105 0 -244 -11l-180 -42q-22 421 -22 1107z" />
<glyph unicode="6" horiz-adv-x="1469" d="M3 944q3 376 182 686q222 374 587 374q318 0 545 -313l-265 -418q-39 42 -83 83q-55 44 -94 44q-188 0 -313 -346q174 55 340 56q147 0 285 -47q230 -80 280 -288q11 -55 11 -119q-14 -280 -213 -518q-216 -257 -509 -257q-318 0 -537 315q-122 174 -177 402 q-39 166 -39 346zM534 551q77 -213 238 -213q64 0 136 30q149 64 130 158q-11 42 -51 82t-88 40q14 0 -196 -50q-91 -19 -169 -47z" />
<glyph unicode="7" horiz-adv-x="1126" d="M-55 1353v534l1165 128l-410 -2095l-490 -47l274 1516z" />
<glyph unicode="8" horiz-adv-x="1610" d="M44 318q-58 244 89 471q89 163 268 268q-216 108 -257 296q-11 44 -14 106q3 232 219 404q205 152 481 171q280 11 485 -127q161 -113 196 -269q8 -44 8 -94q3 -249 -246 -426q304 -144 368 -423q11 -58 11 -128q3 -288 -241 -503q-238 -202 -567 -225q-343 -25 -584 161 q-174 127 -216 318zM548 498q17 -89 116 -141q86 -42 188 -36q136 8 230 100q102 91 75 213q-22 86 -114.5 131.5t-192.5 39.5q-130 -14 -230 -94q-102 -89 -72 -213zM612 1317q28 -125 202 -113q89 6 158 61t46 133q-17 64 -80.5 95.5t-121.5 20.5q-89 -3 -156.5 -61 t-47.5 -136z" />
<glyph unicode="9" horiz-adv-x="1585" d="M-53 1279q-6 293 241 503q238 202 565 227q338 25 578 -155q180 -136 233 -329q44 -202 -56 -396q-227 -681 -335 -1231l-498 77l205 700q-30 -11 -119 -14q-349 -22 -578 155q-180 136 -222 327q-14 64 -14 136zM501 1173q19 -72 94 -107q75 -39 155 -28q113 6 193.5 75 t52.5 168q-19 75 -91 109.5t-158 32.5q-108 -11 -182 -75q-83 -72 -64 -175z" />
<glyph unicode=":" horiz-adv-x="650" d="M36 1315q6 53 37.5 101t71.5 78.5t94 41.5t104 3q55 -11 99.5 -44.5t72 -82t41.5 -102.5t3 -114q-8 -55 -36 -104t-70.5 -80.5t-92.5 -45.5t-111 -3q-47 17 -91.5 48.5t-74.5 80t-44 105.5t-3 118zM66 578q6 61 38 105.5t72 73.5t94 43t104 5q55 -17 99.5 -50t72 -75.5 t41.5 -101t2 -113.5q-8 -55 -35.5 -106.5t-70.5 -80.5t-92.5 -43t-102.5 0q-55 14 -99.5 43t-75 80.5t-44.5 105.5t-3 114z" />
<glyph unicode=";" horiz-adv-x="683" d="M6 -271l141 891l456 -39q-166 -468 -238 -849zM83 1315q14 53 44.5 101t72 78.5t96.5 41.5t108 3q66 -11 110.5 -44.5t72 -82t45.5 -102.5t5 -114q-14 -55 -43 -104t-70.5 -80.5t-98.5 -45.5t-112 -3q-58 17 -102.5 48.5t-73.5 80t-47 105.5t-7 118z" />
<glyph unicode="=" horiz-adv-x="1162" d="M19 1259l994 116l77 -426q-542 -39 -941 -116zM77 648l994 110l78 -429q-476 -28 -939 -113z" />
<glyph unicode="?" horiz-adv-x="1079" d="M64 191q6 58 37.5 102.5t71.5 75t95.5 44t102.5 8.5q55 -14 101 -50t72 -81.5t40 -102.5t5 -112q-11 -55 -38.5 -106.5t-69 -82t-92.5 -43t-104 1.5q-55 11 -99.5 41.5t-75 81.5t-43 105t-3.5 118zM69 1602l36 474q368 -33 603 -141q318 -149 308 -441 q-19 -371 -327 -600q-77 -56 -199 -111l-14 -210l-340 22l-34 484q435 127 455.5 340.5t-488.5 182.5z" />
<glyph unicode="@" horiz-adv-x="2191" d="M6 620q-25 556 146 958q152 349 429 528q257 163 559 163q374 0 681 -229q371 -274 390 -720q14 -327 -182 -816q-163 -404 -582 -665l-232 250l19 260q-166 -136 -348 -136q-127 0 -216 91q-111 113 -119 291q-14 304 191 576q160 216 365 271q100 28 194 0l3 22 q50 6 91 6q25 0 74.5 -5.5t77.5 -5.5q50 0 100 11q-39 -302 -69 -568l-70 -559q260 293 316 545q30 136 28 247q-14 307 -269 481q-205 149 -451 150q-396 0 -598 -324q-152 -249 -135 -637q11 -280 135 -653l-412 -337q-102 446 -116 805zM880 603q6 -113 91 -113 q80 0 142 83q47 64 55 138q8 75 -33 116.5t-94 27.5q-64 -17 -115 -91.5t-46 -160.5z" />
<glyph unicode="A" horiz-adv-x="1400" d="M0 -6q219 977 310 1943l653 105q155 -866 509 -2000l-498 -133l-80 354l-327 -42l-44 -359zM581 637l224 2l-144 759z" />
<glyph unicode="B" horiz-adv-x="1367" d="M-14 1890q205 105 462 108h14q268 0 446 -116q191 -133 216 -346q3 -25 3 -50q0 -214 -194 -409q274 -39 390 -313q50 -102 50 -207q0 -24 -3 -48q-8 -149 -97 -265q-194 -257 -520 -330q-122 -23 -284 -23q-152 0 -339 20q-17 515 -72 1096q-64 814 -72 883zM387 1566 l39 -368q213 55 260 164q21 57 21 100q0 111 -140 127q-20 3 -40 3q-64 0 -140 -26zM479 744l27 -368q40 -3 75 -3q81 0 141 17q125 44 141 158q4 23 4 43q0 112 -117 156q-62 27 -128 27q-69 0 -143 -30z" />
<glyph unicode="C" horiz-adv-x="1181" d="M-8 980v41q0 270 74 504q91 257 247 396q139 123 301 123q38 0 78 -7q232 -36 481 -293l-116 -194l-122 -194q-132 98 -234 98q-88 0 -153 -73q-105 -114 -104 -344q0 -38 2 -79q25 -282 155 -413q68 -72 151 -72q101 0 222 108l258 -351q-177 -291 -399 -341 q-45 -10 -91 -10l-307 115q-189 136 -308 396q-125 282 -135 590z" />
<glyph unicode="D" horiz-adv-x="1389" d="M8 1926q244 53 442 54q69 0 131 -7q285 -28 457 -180q249 -216 310 -489q27 -104 27 -207v-7q-6 -235 -85 -429q-86 -227 -285 -404q-111 -108 -244 -177q-277 -163 -642 -169h-6l-85 1675q-17 301 -20 340zM526 933q8 -224 22 -418q185 83 282 265q69 136 69 274 q0 39 -5 78q-25 158 -133 232q-85 60 -206 60q-13 0 -26 -1q-5 -169 -5 -312q0 -95 2 -178z" />
<glyph unicode="E" horiz-adv-x="1178" d="M6 1907l492 66l490 67l47 -258l42 -260q-149 -14 -285 -28q-130 -19 -255 -33q-6 -100 -6 -144l-2 -141l207 36l202 44l28 -196l33 -202q-202 -36 -263 -47q-108 -22 -191 -39l6 -263l282 45l271 44l42 -260l41 -263q-219 -14 -484 -64q-268 -53 -587 -133 q-11 172 -33 504l-28 512q-33 670 -49 1013z" />
<glyph unicode="F" horiz-adv-x="1131" d="M-22 1896l1010 135l91 -523q-305 -19 -573 -66l6 -302l520 108l67 -396q-307 -50 -570 -108q14 -379 58 -744l-490 -127z" />
<glyph unicode="G" horiz-adv-x="1588" d="M3 952q11 191 63 368q58 180 153 338q122 196 274 293q155 94 343 94q161 0 296 -77q136 -80 243 -249l-130 -169l-132 -169q-108 136 -233 136q-44 0 -91 -17q-155 -64 -266 -293q-90 -182 -90 -379q0 -81 15 -164q30 -149 108 -232q92 -87 226 -87q11 0 23 1 q127 8 225 105q91 94 116 244q-94 -19 -222 -50q-83 -19 -204 -56v211l-3 205l418 85l415 78q25 -91 28 -202q2 -25 2 -51q0 -79 -14 -171q-19 -102 -49 -196q-28 -97 -72 -183q-119 -252 -299 -376q-183 -127 -424 -127q-161 0 -299 77q-130 83 -238 235q-50 86 -85 172 q-42 97 -64 188q-22 100 -28 202q-6 79 -6 157q0 30 1 59z" />
<glyph unicode="H" horiz-adv-x="1358" d="M-6 1915l546 94q-22 -437 -22 -777q0 -97 2 -186l244 47l-42 822l548 94q-15 -385 -15 -732q0 -716 65 -1269l-501 -133l-39 789q-83 -19 -246 -52q22 -354 55 -604l-492 -133z" />
<glyph unicode="I" horiz-adv-x="666" d="M39 1912l254 47l252 45q-19 -378 -19 -723q0 -173 5 -337q11 -490 56 -900l-230 -69l-227 -61z" />
<glyph unicode="J" horiz-adv-x="1090" d="M11 25l158 495l191 -27l188 -25l-64 1447l255 47l260 47q-15 -389 -15 -737q0 -174 4 -337q14 -487 61 -888l-462 -127q-11 0 -274 47q-108 22 -194 36z" />
<glyph unicode="K" horiz-adv-x="1361" d="M0 1915l509 94q-13 -184 -13 -312q0 -45 2 -84q213 210 388 413l442 -233l-489 -489l608 -1155l-492 -271l-462 1066q11 -459 52 -897l-445 -130z" />
<glyph unicode="L" horiz-adv-x="1059" d="M6 1910l503 91q-18 -394 -18 -755.5t18 -689.5l523 78l72 -529q-407 -30 -1007 -194z" />
<glyph unicode="M" horiz-adv-x="1840" d="M3 -44q202 866 277 1951l459 108l180 -1030l80 988l443 42q141 -969 484 -2048l-490 -114l-221 1046l-69 -988l-404 -38l-155 1090l-97 -1118z" />
<glyph unicode="N" horiz-adv-x="1433" d="M19 1971l507 96q14 -91 50 -254q97 -387 188 -673q53 -169 111 -265l-47 1098l503 94q-18 -395 -18 -752q0 -674 65 -1213l-462 -127q-3 11 -61 100l-257 418q-64 100 -78 132q14 -343 47 -650l-451 -130z" />
<glyph unicode="O" horiz-adv-x="1444" d="M0 952q0 382 158 692q199 382 550 382q302 0 512 -313q116 -174 169 -357q50 -185 53 -404q0 -13 1 -26q0 -359 -164 -663q-202 -385 -551 -385q-307 0 -515 321q-97 138 -160 338q-53 199 -53 415zM448 863q6 -94 31 -174q30 -119 91 -177q75 -69 172 -69q141 0 207 141 q48 110 48 270q0 18 -1 37q-8 202 -80 390q-77 191 -196 191q-138 0 -208 -238q-58 -180 -64 -371z" />
<glyph unicode="P" horiz-adv-x="1292" d="M-6 1932q369 105 621 105q41 0 80 -3q263 -19 404 -169q152 -158 169 -462q2 -32 2 -64q0 -200 -77 -368q-83 -161 -233 -271q-174 -138 -423 -182v-27q0 -200 41 -557l-481 -59v37q0 289 -28 979q-25 872 -75 1041zM468 1547l33 -526q163 3 260 114q75 80 83 210 q2 20 2 38q0 134 -110 183q-42 18 -95 18q-75 0 -173 -37z" />
<glyph unicode="Q" horiz-adv-x="1560" d="M19 955q17 385 205 706q245 398 610 398h2q307 0 512 -324q111 -166 158 -360q44 -179 44 -355q0 -300 -127 -594q39 -119 163 -365l-368 -246l-83 207q-201 -160 -407 -160h-3q-321 0 -529 318q-100 163 -146 365q-34 143 -34 309q0 50 3 101zM440 839v-10 q0 -237 144 -372q85 -81 180 -81q75 0 155 50l-191 437l188 97l185 106q-22 152 -83 274q-82 160 -195 160h-1q-158 0 -274 -244q-100 -202 -108 -417z" />
<glyph unicode="R" horiz-adv-x="1333" d="M-6 1912q446 142 753 142q415 0 501 -374q5 -50 5 -97q0 -381 -334 -634q64 -111 481 -650q-155 -166 -387 -410l-518 800q11 -385 47 -700l-445 -133q-30 1530 -103 2056zM476 1143q94 50 180 127q121 114 121 201q0 12 -2 23q-17 72 -102 78h-14q-72 0 -183 -28 q-3 -52 -3 -102t3 -97v-202z" />
<glyph unicode="S" horiz-adv-x="1405" d="M0 875q-4 34 -4 69q0 286 261 653q310 423 604 443q11 1 21 1q265 0 361 -397q22 -97 36 -221q-64 -25 -211 -83l-213 -81q-28 130 -116 130q-113 0 -197 -113q-39 -61 -39 -118q0 -27 9 -54q22 -50 136 -50q58 0 141 14q130 25 235 25q255 0 335 -163q28 -53 44 -108 q11 -50 10 -102q0 -136 -73 -288q-122 -277 -429 -460q-150 -99 -326 -99h-4q-161 0 -332 80q39 172 130 504q113 -69 222 -70q53 0 99 23q91 19 166 63q90 51 90 108q0 7 -1 14q-14 77 -139 78q-86 0 -243 -34q-151 -41 -237 -41h-4q-113 0 -180 47q-141 72 -152 230z" />
<glyph unicode="T" horiz-adv-x="1303" d="M-42 1359l12 545l1223 133l102 -543q-324 -19 -462 -30v-30q0 -364 133 -1467l-534 -128l-69 1572q-42 -3 -186 -24q-133 -19 -219 -28z" />
<glyph unicode="U" horiz-adv-x="1419" d="M19 700l111 1293l518 -47l-67 -499l-58 -498q1 -6 1 -16q0 -43 -12 -147q-14 -96 -14 -165v-23q11 -227 191 -227q130 0 199 102q59 80 59 214v21l-178 1323l510 -36l77 -703l78 -711q5 -46 5 -90q0 -277 -199 -425q-174 -127 -579 -182q-60 -7 -115 -7q-289 0 -421 209 q-111 177 -111 476q0 66 5 138z" />
<glyph unicode="V" horiz-adv-x="1286" d="M-61 1915l523 116q50 -454 172 -1334q55 836 61 1265l559 -50q-185 -908 -313 -1926l-634 -105q-100 841 -368 2034z" />
<glyph unicode="W" horiz-adv-x="1818" d="M-77 1832l481 119l197 -971l58 1035l407 39l166 -1138l96 1115l488 -116q-202 -852 -277 -1929l-496 -119l-146 922l-67 -880l-454 -34q-144 958 -453 1957z" />
<glyph unicode="X" horiz-adv-x="1336" d="M-28 1821l421 282l125 -279q58 -130 116 -280l88 247q50 130 94 246l540 -42l-454 -1024q221 -462 438 -835l-363 -299l-307 617l-266 -581l-429 130q224 432 432 955z" />
<glyph unicode="Y" horiz-adv-x="1353" d="M-75 1788l532 268q28 -144 66 -340q42 -210 114 -412l193 714l510 -78q-205 -562 -355 -1074q-144 -512 -235 -968l-484 27l180 659l-261 601z" />
<glyph unicode="Z" horiz-adv-x="1488" d="M25 412q97 136 387 518l416 531q-266 -25 -562 -74l-100 542l1232 86q11 -133 41 -526q-105 -127 -396 -518q-100 -119 -191 -254q-127 -166 -174 -260l720 41l58 -526q-794 -25 -1312 -91z" />
<glyph unicode="[" horiz-adv-x="766" d="M19 2250q116 47 332 105t281 69t126 17l89 -426q-133 -17 -269 -42q-58 -14 -116 -27q8 -288 20 -571q14 -230 26 -480t30 -514.5t35 -527.5q3 -39 3 -72q11 0 22 3q69 11 127 22q138 25 257 61l117 -423q-576 -136 -911 -133q-39 457 -72 960q-14 205 -32 443t-30 487 t-21 507q-8 255 -8 501z" />
<glyph unicode="\" horiz-adv-x="1333" d="M-72 2112l244 346q185 -415 390 -842q91 -177 188 -377.5t202 -409.5t213 -419.5t216 -406.5l-310 -205q-191 357 -390 753q-89 161 -183 351.5t-191 391t-193.5 409.5t-185.5 409z" />
<glyph unicode="]" horiz-adv-x="467" d="M-155 2372q61 6 131.5 7t137 -0.5t131.5 -4t118 -8.5q136 -11 260 -30q86 -581 105 -872q6 -202 8.5 -427.5t4 -463.5t1.5 -484q-6 -235 -9 -449l3 -69q-125 -42 -246 -72q-47 -11 -247.5 -47t-261.5 -39l-61 415q127 6 265 25q55 14 122 25q6 266 3 545 q0 216 -1.5 455.5t-5.5 488.5t-10 509l-5 86q-3 0 -3 6h-133q-141 0 -274 -9z" />
<glyph unicode="^" horiz-adv-x="1823" d="M-53 2056l565 75l-33 -1550q-380 11 -374 -25q0 33 -33 396t-125 1104zM50 66.5q-14 55.5 0 113.5q6 61 36 105t70 73t94 46t104 8q53 -22 98.5 -55t74.5 -76t41.5 -99.5t1.5 -115.5q-8 -55 -34.5 -105t-69.5 -80t-94 -45.5t-109 1.5q-50 14 -93 44t-74.5 80t-45.5 105.5 zM548 213q6 58 35 101t71.5 76t94 45.5t103.5 7.5q55 -17 99.5 -53t73.5 -80t41.5 -101t4.5 -115q-8 -53 -37 -104t-70.5 -81.5t-93 -44.5t-109.5 3q-50 11 -95.5 41.5t-73 82t-41.5 105t-3 117.5zM620 2211l664 89l-263 -1719q-363 42 -380.5 19.5t-15 488t-5.5 1122.5z M1035 185q8 58 36 104t69.5 73.5t94 44t102.5 11.5q61 -19 103.5 -54t72 -79t43 -101t2.5 -115q-11 -53 -38.5 -104t-66.5 -81.5t-94 -43t-108 -1.5q-47 14 -94 44.5t-76 82t-41.5 105.5t-4.5 114zM1176 584q3 -6 58.5 514.5t63.5 919.5l603 -86l-368 -1448 q-360 100 -357 100z" />
<glyph unicode="_" horiz-adv-x="1231" d="M17 -119l1273 8l-9 -285q-695 14 -1209 -8z" />
<glyph unicode="`" horiz-adv-x="520" d="M-122 2020l368 108l200 -620l-272 -88z" />
<glyph unicode="a" horiz-adv-x="1400" d="M0 -6q219 977 310 1943l653 105q155 -866 509 -2000l-498 -133l-80 354l-327 -42l-44 -359zM581 637l224 2l-144 759z" />
<glyph unicode="b" horiz-adv-x="1367" d="M-14 1890q205 105 462 108h14q268 0 446 -116q191 -133 216 -346q3 -25 3 -50q0 -214 -194 -409q274 -39 390 -313q50 -102 50 -207q0 -24 -3 -48q-8 -149 -97 -265q-194 -257 -520 -330q-122 -23 -284 -23q-152 0 -339 20q-17 515 -72 1096q-64 814 -72 883zM387 1566 l39 -368q213 55 260 164q21 57 21 100q0 111 -140 127q-20 3 -40 3q-64 0 -140 -26zM479 744l27 -368q40 -3 75 -3q81 0 141 17q125 44 141 158q4 23 4 43q0 112 -117 156q-62 27 -128 27q-69 0 -143 -30z" />
<glyph unicode="c" horiz-adv-x="1181" d="M-8 980v41q0 270 74 504q91 257 247 396q139 123 301 123q38 0 78 -7q232 -36 481 -293l-116 -194l-122 -194q-132 98 -234 98q-88 0 -153 -73q-105 -114 -104 -344q0 -38 2 -79q25 -282 155 -413q68 -72 151 -72q101 0 222 108l258 -351q-177 -291 -399 -341 q-45 -10 -91 -10l-307 115q-189 136 -308 396q-125 282 -135 590z" />
<glyph unicode="d" horiz-adv-x="1389" d="M8 1926q244 53 442 54q69 0 131 -7q285 -28 457 -180q249 -216 310 -489q27 -104 27 -207v-7q-6 -235 -85 -429q-86 -227 -285 -404q-111 -108 -244 -177q-277 -163 -642 -169h-6l-85 1675q-17 301 -20 340zM526 933q8 -224 22 -418q185 83 282 265q69 136 69 274 q0 39 -5 78q-25 158 -133 232q-85 60 -206 60q-13 0 -26 -1q-5 -169 -5 -312q0 -95 2 -178z" />
<glyph unicode="e" horiz-adv-x="1178" d="M6 1907l492 66l490 67l47 -258l42 -260q-149 -14 -285 -28q-130 -19 -255 -33q-6 -100 -6 -144l-2 -141l207 36l202 44l28 -196l33 -202q-202 -36 -263 -47q-108 -22 -191 -39l6 -263l282 45l271 44l42 -260l41 -263q-219 -14 -484 -64q-268 -53 -587 -133 q-11 172 -33 504l-28 512q-33 670 -49 1013z" />
<glyph unicode="f" horiz-adv-x="1131" d="M-22 1896l1010 135l91 -523q-305 -19 -573 -66l6 -302l520 108l67 -396q-307 -50 -570 -108q14 -379 58 -744l-490 -127z" />
<glyph unicode="g" horiz-adv-x="1588" d="M3 952q11 191 63 368q58 180 153 338q122 196 274 293q155 94 343 94q161 0 296 -77q136 -80 243 -249l-130 -169l-132 -169q-108 136 -233 136q-44 0 -91 -17q-155 -64 -266 -293q-90 -182 -90 -379q0 -81 15 -164q30 -149 108 -232q92 -87 226 -87q11 0 23 1 q127 8 225 105q91 94 116 244q-94 -19 -222 -50q-83 -19 -204 -56v211l-3 205l418 85l415 78q25 -91 28 -202q2 -25 2 -51q0 -79 -14 -171q-19 -102 -49 -196q-28 -97 -72 -183q-119 -252 -299 -376q-183 -127 -424 -127q-161 0 -299 77q-130 83 -238 235q-50 86 -85 172 q-42 97 -64 188q-22 100 -28 202q-6 79 -6 157q0 30 1 59z" />
<glyph unicode="h" horiz-adv-x="1358" d="M-6 1915l546 94q-22 -437 -22 -777q0 -97 2 -186l244 47l-42 822l548 94q-15 -385 -15 -732q0 -716 65 -1269l-501 -133l-39 789q-83 -19 -246 -52q22 -354 55 -604l-492 -133z" />
<glyph unicode="i" horiz-adv-x="666" d="M39 1912l254 47l252 45q-19 -378 -19 -723q0 -173 5 -337q11 -490 56 -900l-230 -69l-227 -61z" />
<glyph unicode="j" horiz-adv-x="1090" d="M11 25l158 495l191 -27l188 -25l-64 1447l255 47l260 47q-15 -389 -15 -737q0 -174 4 -337q14 -487 61 -888l-462 -127q-11 0 -274 47q-108 22 -194 36z" />
<glyph unicode="k" horiz-adv-x="1361" d="M0 1915l509 94q-13 -184 -13 -312q0 -45 2 -84q213 210 388 413l442 -233l-489 -489l608 -1155l-492 -271l-462 1066q11 -459 52 -897l-445 -130z" />
<glyph unicode="l" horiz-adv-x="1059" d="M6 1910l503 91q-18 -394 -18 -755.5t18 -689.5l523 78l72 -529q-407 -30 -1007 -194z" />
<glyph unicode="m" horiz-adv-x="1840" d="M3 -44q202 866 277 1951l459 108l180 -1030l80 988l443 42q141 -969 484 -2048l-490 -114l-221 1046l-69 -988l-404 -38l-155 1090l-97 -1118z" />
<glyph unicode="n" horiz-adv-x="1433" d="M19 1971l507 96q14 -91 50 -254q97 -387 188 -673q53 -169 111 -265l-47 1098l503 94q-18 -395 -18 -752q0 -674 65 -1213l-462 -127q-3 11 -61 100l-257 418q-64 100 -78 132q14 -343 47 -650l-451 -130z" />
<glyph unicode="o" horiz-adv-x="1444" d="M0 952q0 382 158 692q199 382 550 382q302 0 512 -313q116 -174 169 -357q50 -185 53 -404q0 -13 1 -26q0 -359 -164 -663q-202 -385 -551 -385q-307 0 -515 321q-97 138 -160 338q-53 199 -53 415zM448 863q6 -94 31 -174q30 -119 91 -177q75 -69 172 -69q141 0 207 141 q48 110 48 270q0 18 -1 37q-8 202 -80 390q-77 191 -196 191q-138 0 -208 -238q-58 -180 -64 -371z" />
<glyph unicode="p" horiz-adv-x="1292" d="M-6 1932q369 105 621 105q42 0 80 -3q263 -19 404 -169q152 -158 169 -462q2 -32 2 -64q0 -200 -77 -368q-83 -161 -233 -271q-174 -138 -423 -182v-27q0 -199 41 -557l-481 -59v37q0 289 -28 979q-25 872 -75 1041zM468 1547l33 -526q163 3 260 114q75 80 83 210 q2 20 2 38q0 135 -110 183q-42 18 -95 18q-75 0 -173 -37z" />
<glyph unicode="q" horiz-adv-x="1560" d="M19 955q17 385 205 706q245 398 610 398h2q307 0 512 -324q111 -166 158 -360q44 -179 44 -355q0 -300 -127 -594q39 -119 163 -365l-368 -246l-83 207q-201 -160 -407 -160h-3q-321 0 -529 318q-100 163 -146 365q-34 143 -34 309q0 50 3 101zM440 839v-10 q0 -237 144 -372q85 -81 180 -81q75 0 155 50l-191 437l188 97l185 106q-22 152 -83 274q-82 160 -195 160h-1q-158 0 -274 -244q-100 -202 -108 -417z" />
<glyph unicode="r" horiz-adv-x="1333" d="M-6 1912q446 142 753 142q415 0 501 -374q5 -50 5 -97q0 -381 -334 -634q64 -111 481 -650q-155 -166 -387 -410l-518 800q11 -385 47 -700l-445 -133q-30 1530 -103 2056zM476 1143q94 50 180 127q121 114 121 201q0 12 -2 23q-17 72 -102 78h-14q-72 0 -183 -28 q-3 -52 -3 -102t3 -97v-202z" />
<glyph unicode="s" horiz-adv-x="1405" d="M0 875q-4 34 -4 69q0 286 261 653q310 423 604 443q11 1 21 1q265 0 361 -397q22 -97 36 -221q-64 -25 -211 -83l-213 -81q-28 130 -116 130q-113 0 -197 -113q-39 -61 -39 -118q0 -27 9 -54q22 -50 136 -50q58 0 141 14q130 25 235 25q255 0 335 -163q28 -53 44 -108 q11 -50 10 -102q0 -136 -73 -288q-122 -277 -429 -460q-150 -99 -326 -99h-4q-161 0 -332 80q39 172 130 504q113 -69 222 -70q53 0 99 23q91 19 166 63q90 51 90 108q0 7 -1 14q-14 77 -139 78q-86 0 -243 -34q-151 -41 -237 -41h-4q-113 0 -180 47q-141 72 -152 230z" />
<glyph unicode="t" horiz-adv-x="1303" d="M-42 1359l12 545l1223 133l102 -543q-324 -19 -462 -30v-30q0 -364 133 -1467l-534 -128l-69 1572q-42 -3 -186 -24q-133 -19 -219 -28z" />
<glyph unicode="u" horiz-adv-x="1419" d="M19 700l111 1293l518 -47l-67 -499l-58 -498q1 -6 1 -16q0 -43 -12 -147q-14 -96 -14 -165v-23q11 -227 191 -227q130 0 199 102q59 80 59 214v21l-178 1323l510 -36l77 -703l78 -711q5 -46 5 -90q0 -277 -199 -425q-174 -127 -579 -182q-60 -7 -115 -7q-289 0 -421 209 q-111 177 -111 476q0 66 5 138z" />
<glyph unicode="v" horiz-adv-x="1286" d="M-61 1915l523 116q50 -454 172 -1334q55 836 61 1265l559 -50q-185 -908 -313 -1926l-634 -105q-100 841 -368 2034z" />
<glyph unicode="w" horiz-adv-x="1818" d="M-77 1832l481 119l197 -971l58 1035l407 39l166 -1138l96 1115l488 -116q-202 -852 -277 -1929l-496 -119l-146 922l-67 -880l-454 -34q-144 958 -453 1957z" />
<glyph unicode="x" horiz-adv-x="1336" d="M-28 1821l421 282l125 -279q58 -130 116 -280l88 247q50 130 94 246l540 -42l-454 -1024q221 -462 438 -835l-363 -299l-307 617l-266 -581l-429 130q224 432 432 955z" />
<glyph unicode="y" horiz-adv-x="1353" d="M-75 1788l532 268q28 -144 66 -340q42 -210 114 -412l193 714l510 -78q-205 -562 -355 -1074q-144 -512 -235 -968l-484 27l180 659l-261 601z" />
<glyph unicode="z" horiz-adv-x="1488" d="M25 412q97 136 387 518l416 531q-266 -25 -562 -74l-100 542l1232 86q11 -133 41 -526q-105 -127 -396 -518q-100 -119 -191 -254q-127 -166 -174 -260l720 41l58 -526q-794 -25 -1312 -91z" />
<glyph unicode="{" horiz-adv-x="1408" d="M47 1157q161 -14 327 -17q72 0 152 -2.5t163 0t167.5 7t167.5 17.5l11 -395q-149 -14 -307 -20q-64 -3 -140 -4t-156.5 -1t-162 4t-156.5 12zM268 1633l111 362q125 -47 255 -105q53 -28 113.5 -59.5t125.5 -67.5t131.5 -75t124.5 -80l-61 -393q-127 89 -268 163 q-58 30 -122 66.5t-131.5 69.5t-138 63.5t-140.5 55.5zM385 210q136 61 268 133q55 33 120.5 72t127.5 77.5t128.5 85.5t121.5 95l155 -355q-108 -77 -232 -160q-44 -30 -105 -67.5t-125 -75t-129 -69.5t-134 -65z" />
<glyph unicode="}" horiz-adv-x="1408" d="M30 1558q113 83 233 163q53 33 109.5 68t120 75t130 72t130.5 59l196 -318q-130 -69 -263 -141q-58 -30 -120 -70.5t-127 -79t-130 -83t-126 -94.5zM208 274l60 390q130 -86 269 -160q55 -30 120 -63.5t135.5 -69.5t140 -66.5t135.5 -55.5l-108 -368q-122 53 -252 116 q-55 25 -116 55.5l-127 63.5t-132.5 74.5t-124.5 83.5zM327 1182q144 11 293 16q75 6 149.5 7.5t152 1.5t160.5 -5.5t163 -14.5l61 -398q-166 17 -332 22q-69 0 -149.5 1.5t-164.5 0t-167 -7t-158 -19.5z" />
<glyph unicode="~" horiz-adv-x="1369" d="M-83 1993q346 53 595 2q327 -69 365 -357q53 -363 -202 -658q-64 -70 -166 -150l25 -271l-329 -55l-122 520q393 227 375 440t-494 66zM162 65q-10 57 1 109q11 64 40 109.5t73.5 74.5t95.5 46t110 6q47 -19 89.5 -52.5t73 -78t40.5 -99.5t-1 -114q-11 -58 -43 -107.5 t-73.5 -80t-95.5 -46t-107 1.5q-50 14 -94 44.5t-71.5 80t-37.5 106.5zM778 174q6 64 36 109.5t71.5 74.5t94 46t105.5 6q53 -19 97 -52.5t74.5 -78t41.5 -99.5t3 -114q-8 -58 -36 -107.5t-69.5 -80t-94 -46t-105.5 1.5q-53 14 -97 44.5t-75.5 80t-44 106.5t-1.5 109z M886 578q3 -6 4 59.5t1 170.5t3 235t3 272q6 327 8 750l504 -86l-197 -1459q-94 25 -163 34q-33 6 -62 11t-54 9t-31 4h-16z" />
<glyph unicode="&#xad;" d="M66 1101l648 9l11 -473q-351 22 -614 -17z" />
<glyph unicode="&#x2dc;" horiz-adv-x="940" d="M-86 2059q3 83 12.5 170t37.5 152.5t82 113.5t139 48q61 0 112.5 -22t95.5 -49.5t88.5 -48.5t85.5 -21q61 0 84.5 41.5t26.5 105.5l233 -17q-8 -89 -21 -171.5t-43.5 -150.5t-85.5 -116.5t-147 -48.5q-61 0 -124.5 29t-121.5 54q-33 19 -63.5 33t-72.5 14 q-44 0 -66 -31.5t-25 -84.5h-227z" />
<glyph unicode="&#x2000;" horiz-adv-x="1361" />
<glyph unicode="&#x2001;" horiz-adv-x="2723" />
<glyph unicode="&#x2002;" horiz-adv-x="1361" />
<glyph unicode="&#x2003;" horiz-adv-x="2723" />
<glyph unicode="&#x2004;" horiz-adv-x="907" />
<glyph unicode="&#x2005;" horiz-adv-x="680" />
<glyph unicode="&#x2006;" horiz-adv-x="453" />
<glyph unicode="&#x2007;" horiz-adv-x="453" />
<glyph unicode="&#x2008;" horiz-adv-x="340" />
<glyph unicode="&#x2009;" horiz-adv-x="544" />
<glyph unicode="&#x200a;" horiz-adv-x="151" />
<glyph unicode="&#x2010;" d="M66 1101l648 9l11 -473q-351 22 -614 -17z" />
<glyph unicode="&#x2011;" d="M66 1101l648 9l11 -473q-351 22 -614 -17z" />
<glyph unicode="&#x2012;" d="M66 1101l648 9l11 -473q-351 22 -614 -17z" />
<glyph unicode="&#x2013;" horiz-adv-x="1571" d="M-19 1312h1569l22 -482h-1572z" />
<glyph unicode="&#x2014;" horiz-adv-x="3138" d="M387 1312h2325l20 -482h-2325z" />
<glyph unicode="&#x2018;" horiz-adv-x="755" d="M102 1503l247 1165l562 55q-169 -614 -225 -1121z" />
<glyph unicode="&#x2019;" horiz-adv-x="755" d="M102 1503l247 1165l562 55q-169 -614 -225 -1121z" />
<glyph unicode="&#x201a;" horiz-adv-x="949" d="M149 -642l263 1104h476l-423 -1104h-316z" />
<glyph unicode="&#x201c;" horiz-adv-x="918" d="M-19 1852l282 246q113 -468 268 -778l-238 -252zM382 2040l315 204q72 -476 200 -785l-263 -222z" />
<glyph unicode="&#x201d;" horiz-adv-x="877" d="M-50 1489q100 304 147 764l313 -199l-191 -778zM318 1353q122 296 202 753l296 -254l-251 -751z" />
<glyph unicode="&#x201e;" horiz-adv-x="1541" d="M149 -642l263 1104h474l-421 -1104h-316zM742 -642l263 1104h473l-424 -1104h-312z" />
<glyph unicode="&#x2022;" horiz-adv-x="1317" d="M47 1215q-6 144 36 265.5t116.5 214.5t182.5 147t227 54q125 0 234 -54t193.5 -147t138.5 -214.5t59 -265.5q6 -136 -37 -261.5t-117.5 -218.5t-181 -148.5t-225.5 -55.5q-125 0 -235.5 55.5t-195 148.5t-137 218.5t-58.5 261.5z" />
<glyph unicode="&#x2026;" horiz-adv-x="2139" d="M133 172q-3 72 18 134t57 110.5t91 75t116 26.5q66 0 120 -26.5t97 -75t68 -110.5t28 -134q3 -69 -16.5 -131.5t-59.5 -109.5t-91.5 -72t-117.5 -25q-61 0 -119 25t-97 72t-65 109t-29 132zM803 172q-3 72 19 134t59.5 110.5t91.5 75t115 26.5t119 -26.5t96.5 -75 t67.5 -110.5t32 -134q3 -69 -19 -131.5t-59.5 -109.5t-91.5 -72t-118 -25q-61 0 -117.5 25t-96.5 72t-68 109t-30 132zM1483 172q-3 72 18 134t60 110.5t91.5 75t118.5 26.5q61 0 118 -26.5t97 -75t66 -110.5t29 -134q3 -69 -18 -131.5t-58 -109.5t-91 -72t-115 -25 q-64 0 -120.5 25t-96.5 72t-68 109t-31 132z" />
<glyph unicode="&#x202f;" horiz-adv-x="544" />
<glyph unicode="&#x2039;" horiz-adv-x="816" d="M72 1077l371 835l252 -155l-296 -680l354 -709l-233 -136z" />
<glyph unicode="&#x203a;" horiz-adv-x="816" d="M44 1757l238 155l440 -835l-371 -845l-243 136l288 709z" />
<glyph unicode="&#x205f;" horiz-adv-x="680" />
<glyph unicode="&#x20ac;" horiz-adv-x="1538" d="M58 1320l11 238h161q30 208 109 401.5t205 339t289 232.5t368 87q61 0 112 -5.5t123 -24.5l-25 -476q-77 17 -141 16q-125 0 -221.5 -45.5t-168.5 -120.5t-115 -180t-68 -224h684l-17 -238h-689l3 -58q0 -30 3 -66q0 -28 8 -61h667l-19 -238h-595q36 -113 92.5 -214.5 t134 -177.5t171.5 -121.5t202 -45.5q72 0 144 19l20 -484q-77 -25 -172 -25q-205 0 -378 84.5t-308.5 227t-229.5 333.5t-150 404h-193l14 238h141q-6 30 -6 58q-3 33 -3 66l-2 61h-161z" />
<glyph unicode="&#xe000;" horiz-adv-x="2103" d="M0 0v2103h2103v-2103h-2103z" />
</font>
</defs>
</svg>
